<svg width="55" height="55" viewBox="0 0 55 55" fill="none" xmlns="http://www.w3.org/2000/svg">
<path d="M16.041 25.2083H20.6243V29.7916H16.041V25.2083ZM16.041 34.375H20.6243V38.9583H16.041V34.375ZM25.2077 25.2083H29.791V29.7916H25.2077V25.2083ZM25.2077 34.375H29.791V38.9583H25.2077V34.375ZM34.3743 25.2083H38.9577V29.7916H34.3743V25.2083ZM34.3743 34.375H38.9577V38.9583H34.3743V34.375Z" fill="black"/>
<path d="M11.4583 50.4166H43.5417C46.0694 50.4166 48.125 48.361 48.125 45.8333V13.75C48.125 11.2223 46.0694 9.16665 43.5417 9.16665H38.9583V4.58331H34.375V9.16665H20.625V4.58331H16.0417V9.16665H11.4583C8.93062 9.16665 6.875 11.2223 6.875 13.75V45.8333C6.875 48.361 8.93062 50.4166 11.4583 50.4166ZM43.5417 18.3333L43.544 45.8333H11.4583V18.3333H43.5417Z" fill="black"/>
</svg>
