<svg width="40" height="38" viewBox="0 0 40 38" fill="none" xmlns="http://www.w3.org/2000/svg">
<path d="M7.08268 7.83333C7.08268 6.61776 7.56557 5.45197 8.42511 4.59243C9.28465 3.73289 10.4504 3.25 11.666 3.25C12.8816 3.25 14.0474 3.73289 14.9069 4.59243C15.7665 5.45197 16.2493 6.61776 16.2493 7.83333C16.2493 9.04891 15.7665 10.2147 14.9069 11.0742C14.0474 11.9338 12.8816 12.4167 11.666 12.4167C10.4504 12.4167 9.28465 11.9338 8.42511 11.0742C7.56557 10.2147 7.08268 9.04891 7.08268 7.83333ZM11.666 0.5C9.7211 0.5 7.85583 1.27262 6.48057 2.64788C5.1053 4.02315 4.33268 5.88841 4.33268 7.83333C4.33268 9.77825 5.1053 11.6435 6.48057 13.0188C7.85583 14.3941 9.7211 15.1667 11.666 15.1667C13.6109 15.1667 15.4762 14.3941 16.8515 13.0188C18.2267 11.6435 18.9993 9.77825 18.9993 7.83333C18.9993 5.88841 18.2267 4.02315 16.8515 2.64788C15.4762 1.27262 13.6109 0.5 11.666 0.5ZM25.416 9.66667C25.416 8.93732 25.7057 8.23785 26.2215 7.72212C26.7372 7.2064 27.4367 6.91667 28.166 6.91667C28.8954 6.91667 29.5948 7.2064 30.1106 7.72212C30.6263 8.23785 30.916 8.93732 30.916 9.66667C30.916 10.396 30.6263 11.0955 30.1106 11.6112C29.5948 12.1269 28.8954 12.4167 28.166 12.4167C27.4367 12.4167 26.7372 12.1269 26.2215 11.6112C25.7057 11.0955 25.416 10.396 25.416 9.66667ZM28.166 4.16667C26.7073 4.16667 25.3084 4.74613 24.2769 5.77758C23.2455 6.80903 22.666 8.20798 22.666 9.66667C22.666 11.1254 23.2455 12.5243 24.2769 13.5558C25.3084 14.5872 26.7073 15.1667 28.166 15.1667C29.6247 15.1667 31.0237 14.5872 32.0551 13.5558C33.0866 12.5243 33.666 11.1254 33.666 9.66667C33.666 8.20798 33.0866 6.80903 32.0551 5.77758C31.0237 4.74613 29.6247 4.16667 28.166 4.16667ZM4.79102 18.8333C3.697 18.8333 2.64779 19.2679 1.8742 20.0415C1.10061 20.8151 0.666016 21.8643 0.666016 22.9583V23.468C0.66817 23.5955 0.676737 23.7227 0.691682 23.8493C0.843078 25.2135 1.33341 26.5181 2.11802 27.6443C3.61768 29.7857 6.48135 31.6667 11.666 31.6667C14.1758 31.6667 16.1412 31.2267 17.672 30.53C17.3935 29.6062 17.2285 28.652 17.1807 27.6883C15.9982 28.385 14.2565 28.9167 11.666 28.9167C7.22568 28.9167 5.27502 27.3583 4.36935 26.0658C3.85554 25.3254 3.53248 24.4696 3.42885 23.5743C3.42332 23.5262 3.41904 23.4779 3.41602 23.4295V22.9583C3.41602 22.5937 3.56088 22.2439 3.81874 21.9861C4.07661 21.7282 4.42634 21.5833 4.79102 21.5833H18.508C18.9645 20.7088 19.5255 19.8985 20.1745 19.1688C19.6586 18.9466 19.1027 18.8324 18.541 18.8333H4.79102ZM39.166 27.0833C39.166 24.4091 38.1037 21.8443 36.2127 19.9533C34.3217 18.0623 31.7569 17 29.0827 17C26.4084 17 23.8437 18.0623 21.9527 19.9533C20.0617 21.8443 18.9993 24.4091 18.9993 27.0833C18.9993 29.7576 20.0617 32.3223 21.9527 34.2133C23.8437 36.1043 26.4084 37.1667 29.0827 37.1667C31.7569 37.1667 34.3217 36.1043 36.2127 34.2133C38.1037 32.3223 39.166 29.7576 39.166 27.0833ZM29.9993 28L30.0012 32.5888C30.0012 32.832 29.9046 33.0651 29.7327 33.237C29.5608 33.4089 29.3276 33.5055 29.0845 33.5055C28.8414 33.5055 28.6082 33.4089 28.4363 33.237C28.2644 33.0651 28.1678 32.832 28.1678 32.5888V28H23.5753C23.3322 28 23.0991 27.9034 22.9272 27.7315C22.7553 27.5596 22.6587 27.3264 22.6587 27.0833C22.6587 26.8402 22.7553 26.6071 22.9272 26.4352C23.0991 26.2632 23.3322 26.1667 23.5753 26.1667H28.166V21.5833C28.166 21.3402 28.2626 21.1071 28.4345 20.9352C28.6064 20.7632 28.8396 20.6667 29.0827 20.6667C29.3258 20.6667 29.559 20.7632 29.7309 20.9352C29.9028 21.1071 29.9993 21.3402 29.9993 21.5833V26.1667H34.5772C34.8203 26.1667 35.0535 26.2632 35.2254 26.4352C35.3973 26.6071 35.4939 26.8402 35.4939 27.0833C35.4939 27.3264 35.3973 27.5596 35.2254 27.7315C35.0535 27.9034 34.8203 28 34.5772 28H29.9993Z" fill="black"/>
</svg>
