<svg width="60" height="61" viewBox="0 0 60 61" fill="none" xmlns="http://www.w3.org/2000/svg">
<path fill-rule="evenodd" clip-rule="evenodd" d="M34.9361 11.1711C36.1518 10.1004 37.7993 9.5 39.5157 9.5C41.2321 9.5 42.8796 10.1004 44.0953 11.1711C45.3113 12.2419 45.9956 13.6956 45.9956 15.2126C45.9956 16.7296 45.3113 18.1832 44.0953 19.2541C42.8796 20.3247 41.2321 20.9251 39.5157 20.9251C37.7993 20.9251 36.1518 20.3247 34.9361 19.2541C33.7201 18.1832 33.0358 16.7296 33.0358 15.2126C33.0358 13.6956 33.7201 12.2419 34.9361 11.1711ZM39.5157 12.1056C38.5761 12.1056 37.6763 12.4344 37.0139 13.0177C36.3517 13.6009 35.981 14.3905 35.981 15.2126C35.981 16.0346 36.3517 16.8243 37.0139 17.4074C37.6763 17.9907 38.5761 18.3195 39.5157 18.3195C40.4553 18.3195 41.3551 17.9907 42.0175 17.4074C42.6797 16.8243 43.0504 16.0346 43.0504 15.2126C43.0504 14.3905 42.6797 13.6009 42.0175 13.0177C41.3551 12.4344 40.4553 12.1056 39.5157 12.1056ZM23.0153 17.5069C23.3798 17.3958 23.779 17.4155 24.1272 17.5619L35.1403 22.1912C35.6073 22.3875 35.9237 22.7861 35.974 23.2413C36.0243 23.6965 35.801 24.1417 35.3858 24.4142L26.0676 30.531L35.3155 35.893C35.6563 36.0905 35.8893 36.4042 35.9592 36.7593C36.029 37.1144 35.9294 37.4793 35.6841 37.7671L28.6819 45.9816C28.1922 46.556 27.2688 46.6705 26.6195 46.2373C25.9701 45.8041 25.8407 44.9871 26.3304 44.4127L32.3854 37.3094L22.6881 31.687C22.2855 31.4536 22.0373 31.0609 22.0233 30.6352C22.0093 30.2096 22.2313 29.8048 22.6178 29.551L31.6622 23.614L23.4066 20.1437L15.9606 22.415C15.1917 22.6496 14.3535 22.2883 14.0884 21.608C13.8233 20.9278 14.2317 20.1862 15.0006 19.9517L23.0153 17.5069ZM48.6029 20.9072C49.1584 21.4327 49.1273 22.2572 48.5333 22.7487L42.5266 27.7193C42.0639 28.1022 41.3764 28.1804 40.8194 27.9135L38.1335 26.6267C37.4183 26.2841 37.1525 25.4935 37.5398 24.8607C37.927 24.228 38.8207 23.9929 39.5359 24.3355L41.2892 25.1755L46.5215 20.8457C47.1154 20.3542 48.0473 20.3818 48.6029 20.9072ZM21.2297 33.1783C21.8764 33.6146 22.0008 34.4321 21.5076 35.0043L18.5332 38.4545C18.4108 38.5965 18.2566 38.7147 18.0803 38.8018L8.19085 43.6878C7.48078 44.0387 6.5837 43.8138 6.18716 43.1856C5.79062 42.5574 6.04479 41.7637 6.75487 41.4129L16.3771 36.659L19.1658 33.4241C19.659 32.852 20.583 32.7419 21.2297 33.1783Z" fill="black"/>
</svg>
