<svg width="218" height="65" viewBox="0 0 218 65" fill="none" xmlns="http://www.w3.org/2000/svg">
<path fillRule="evenodd" clipRule="evenodd" d="M82.8994 24.0378C83.2327 22.296 83.2442 20.4535 82.9396 18.5102C82.6293 16.5551 82.0546 14.8074 81.2098 13.2789C80.3707 11.7504 79.296 10.4885 77.9857 9.4991C76.6811 8.50972 75.1868 7.8284 73.5144 7.45516C71.842 7.08192 70.0375 7.05822 68.1065 7.38407C66.2042 7.70399 64.5145 8.30828 63.0433 9.20288C61.5663 10.0975 60.3709 11.2172 59.4456 12.568C58.5204 13.9128 57.8939 15.4591 57.5606 17.2009C57.2273 18.9427 57.2215 20.803 57.5319 22.7758C57.8422 24.7368 58.4169 26.4786 59.256 27.9953C60.0951 29.512 61.1755 30.7739 62.4916 31.7692C63.4388 32.4824 64.4656 33.0374 65.5764 33.4343C65.5708 33.6748 65.5885 33.9236 65.6295 34.1806L66.6855 40.8656C68.2226 41.1011 71.0492 41.4134 73.405 41.0021C75.8058 40.5829 78.4476 39.2829 79.815 38.5416L78.7443 31.7693C78.7153 31.5862 78.6734 31.4111 78.6187 31.2443C79.5423 30.515 80.3344 29.6685 80.9971 28.7003C81.9339 27.3318 82.5661 25.7796 82.8994 24.0378ZM74.0892 45.5119C77.443 44.9296 79.4719 43.7297 80.5085 42.9285L81.911 51.7999C82.1294 53.1863 81.6696 54.3415 80.5317 55.2658C79.3938 56.19 77.8593 56.8121 75.9283 57.132C74.003 57.4578 72.3766 57.3571 71.0605 56.8298C69.7387 56.3025 68.9743 55.3665 68.7617 54.0098L67.3845 45.291C68.6369 45.6839 70.8673 46.0756 74.0892 45.5119Z" fill="#4AC0B6"/>
<path d="M78.7842 19.2095C78.9911 20.5188 78.9796 21.757 78.7612 22.9301C78.5371 24.1031 78.1118 25.1458 77.4797 26.07C76.8475 26.9883 76.0429 27.7526 75.0601 28.3509C74.0774 28.9493 72.9337 29.3581 71.6234 29.5832C70.3246 29.8024 69.1177 29.7847 68.0142 29.5299C66.9108 29.2752 65.9108 28.8131 65.0258 28.1436C64.1407 27.4741 63.4109 26.6269 62.8476 25.602C62.2844 24.5771 61.8936 23.4099 61.6867 22.0888C61.4741 20.7617 61.4856 19.5057 61.7097 18.3386C61.9339 17.1655 62.3534 16.1288 62.9741 15.2164C63.5948 14.31 64.3993 13.5516 65.3936 12.9532C66.3878 12.349 67.52 11.9461 68.8016 11.7269C70.1004 11.5077 71.3131 11.5255 72.4452 11.7743C73.5717 12.0231 74.5774 12.4852 75.4567 13.1488C76.336 13.8182 77.0601 14.6654 77.6291 15.6904C78.1923 16.7153 78.5773 17.8943 78.7842 19.2095Z" fill="#FEC213"/>
<path d="M65.0264 23.2276C65.2275 24.6863 65.9838 26.0031 67.1288 26.8882C68.2738 27.7733 69.7137 28.1543 71.1317 27.9474C72.5498 27.7404 73.8298 26.9625 74.6903 25.7847C75.5508 24.6069 75.9211 23.1257 75.72 21.667L73.1402 22.0435C73.2443 22.7984 73.0526 23.5649 72.6073 24.1744C72.162 24.7839 71.4996 25.1865 70.7657 25.2936C70.0319 25.4007 69.2867 25.2035 68.6942 24.7455C68.1017 24.2874 67.7103 23.606 67.6062 22.8511L65.0264 23.2276Z" fill="#020000"/>
<path d="M65.7899 19.8436C66.8151 19.8436 67.6462 18.9868 67.6462 17.93C67.6462 16.8731 66.8151 16.0164 65.7899 16.0164C64.7647 16.0164 63.9336 16.8731 63.9336 17.93C63.9336 18.9868 64.7647 19.8436 65.7899 19.8436Z" fill="black"/>
<path d="M73.5594 18.1905C74.5846 18.1905 75.4157 17.3337 75.4157 16.2769C75.4157 15.22 74.5846 14.3633 73.5594 14.3633C72.5342 14.3633 71.7031 15.22 71.7031 16.2769C71.7031 17.3337 72.5342 18.1905 73.5594 18.1905Z" fill="black"/>
<path d="M202.013 39.029C202.013 41.7907 201.592 44.3394 200.757 46.6753C199.915 49.0112 198.705 51.0159 197.114 52.6894C195.523 54.3689 193.627 55.6521 191.42 56.5451C189.212 57.438 186.728 57.8875 183.967 57.8875C181.23 57.8875 178.769 57.4321 176.584 56.5274C174.4 55.6226 172.504 54.3216 170.907 52.6362C169.305 50.9508 168.089 48.952 167.264 46.6576C166.435 44.3572 166.02 41.8143 166.02 39.029C166.02 36.2201 166.44 33.6477 167.276 31.3177C168.117 28.9818 169.316 26.989 170.884 25.3391C172.452 23.6833 174.348 22.4119 176.578 21.5189C178.809 20.6259 181.27 20.1765 183.962 20.1765C186.699 20.1765 189.183 20.6319 191.414 21.5366C193.644 22.4414 195.552 23.7365 197.143 25.41C198.734 27.0895 199.944 29.0824 200.768 31.3887C201.604 33.695 202.013 36.2437 202.013 39.029ZM192.941 39.029C192.941 35.2443 192.129 32.2994 190.509 30.1941C188.884 28.0889 186.705 27.0363 183.967 27.0363C182.204 27.0363 180.642 27.5094 179.299 28.4437C177.95 29.384 176.913 30.7737 176.186 32.6069C175.46 34.4401 175.091 36.5808 175.091 39.029C175.091 41.4536 175.449 43.5707 176.169 45.3862C176.884 47.2016 177.916 48.5854 179.247 49.5493C180.584 50.5132 182.158 50.9922 183.967 50.9922C186.705 50.9922 188.884 49.9337 190.509 47.8166C192.129 45.6996 192.941 42.7664 192.941 39.029Z" fill="#4AC0B6"/>
<path d="M26.382 12.5683V30.0074L45.3602 9.38182C46.2745 8.38716 47.046 7.65458 47.686 7.1781C48.326 6.70162 49.1775 6.46338 50.2404 6.46338C51.6291 6.46338 52.7491 6.88625 53.612 7.73796C54.4692 8.58371 54.8978 9.62006 54.8978 10.841C54.8978 12.3122 54.1721 13.7714 52.7148 15.2187L40.9656 26.815L54.5092 47.0356C55.4636 48.4353 56.1779 49.6622 56.6579 50.7164C57.1322 51.7706 57.3722 52.7891 57.3722 53.7837C57.3722 54.8916 56.9551 55.8505 56.1207 56.6665C55.2864 57.4824 54.1492 57.8874 52.7206 57.8874C51.3776 57.8874 50.2804 57.5896 49.4347 56.9881C48.5889 56.3865 47.8746 55.5944 47.286 54.5938C46.6974 53.5991 46.1773 52.6938 45.7259 51.8778L34.291 33.5691L26.382 41.4727V51.7528C26.382 53.8314 25.9248 55.38 25.0162 56.3806C24.1076 57.3812 22.9361 57.8874 21.5017 57.8874C20.6788 57.8874 19.8845 57.6611 19.1244 57.2084C18.3644 56.7558 17.7815 56.1483 17.3644 55.374C17.0615 54.7427 16.8786 54.0041 16.81 53.1703C16.7472 52.3364 16.7129 51.1214 16.7129 49.5371V12.5683C16.7129 10.5313 17.1415 9.00659 17.9987 7.98811C18.8559 6.96964 20.0216 6.46338 21.496 6.46338C22.9475 6.46338 24.1247 6.96964 25.0276 7.97025C25.9305 8.97681 26.382 10.5075 26.382 12.5683Z" fill="#F26651"/>
<path d="M111.493 54.0603L111.61 53.1453C110.209 54.4049 108.86 55.4031 107.558 56.1398C106.256 56.8766 104.883 57.3816 103.441 57.6609C101.993 57.9401 100.452 57.9698 98.8108 57.7559C96.6386 57.4707 94.6825 56.734 92.9482 55.5516C91.214 54.3693 89.7834 52.8245 88.6506 50.9054C87.5178 48.9862 86.7529 46.8116 86.3558 44.3697C85.9529 41.9277 85.9296 39.3431 86.2799 36.616C87.0157 30.8349 88.9776 26.5154 92.16 23.6516C95.3423 20.7878 99.1961 19.6589 103.721 20.253C106.337 20.5976 108.486 21.3463 110.168 22.4989C111.85 23.6516 113.42 25.2855 114.886 27.4066L116.626 13.7589C116.865 11.8636 117.42 10.4792 118.29 9.60582C119.154 8.73242 120.275 8.38781 121.654 8.56605C123.026 8.75024 124.03 9.33251 124.661 10.3247C125.291 11.317 125.496 12.6776 125.274 14.4185L120.083 55.1833C119.861 56.9419 119.289 58.2134 118.378 58.9858C117.467 59.7582 116.381 60.0672 115.114 59.9008C113.87 59.7345 112.901 59.1462 112.212 58.1243C111.517 57.1142 111.277 55.7536 111.493 54.0603ZM95.354 38.1311C95.0328 40.6384 95.1438 42.8189 95.6868 44.6846C96.2298 46.5443 97.1057 48.0118 98.3261 49.0754C99.5406 50.1448 100.942 50.7806 102.513 50.9885C104.107 51.1965 105.619 50.9707 107.05 50.2934C108.48 49.616 109.695 48.4634 110.705 46.8176C111.715 45.1718 112.387 43.0388 112.72 40.4245C113.035 37.9647 112.906 35.7961 112.346 33.9185C111.785 32.041 110.892 30.5497 109.672 29.4327C108.445 28.3216 107.038 27.6562 105.444 27.4482C103.78 27.2284 102.233 27.5136 100.802 28.2979C99.3713 29.0821 98.1801 30.3299 97.2283 32.0291C96.2824 33.7225 95.6576 35.7604 95.354 38.1311Z" fill="#A49BCC"/>
<path d="M154.845 52.5022L154.794 51.5791C153.671 53.0858 152.542 54.3245 151.425 55.2952C150.302 56.2659 149.071 57.0282 147.724 57.5761C146.378 58.124 144.9 58.4456 143.279 58.5468C141.13 58.6778 139.113 58.3205 137.234 57.4868C135.355 56.653 133.694 55.3964 132.262 53.723C130.829 52.0496 129.701 50.0486 128.876 47.7201C128.051 45.3916 127.564 42.8487 127.415 40.0973C127.088 34.2671 128.205 29.6398 130.766 26.2215C133.321 22.8032 136.839 20.957 141.308 20.689C143.892 20.5342 146.097 20.8617 147.925 21.6776C149.752 22.4935 151.563 23.8096 153.356 25.62L152.594 11.8514C152.485 9.93975 152.777 8.46879 153.453 7.44448C154.135 6.42017 155.149 5.86633 156.513 5.78891C157.87 5.70554 158.942 6.09263 159.727 6.95019C160.511 7.80775 160.953 9.11196 161.05 10.8628L163.336 51.996C163.433 53.7707 163.112 55.1285 162.373 56.0634C161.634 56.9984 160.638 57.5046 159.389 57.582C158.163 57.6535 157.12 57.2545 156.272 56.3791C155.418 55.5036 154.943 54.2113 154.845 52.5022ZM136.438 39.8591C136.581 42.3901 137.074 44.5161 137.933 46.2491C138.787 47.9821 139.898 49.2565 141.262 50.0784C142.625 50.9002 144.086 51.2635 145.645 51.1682C147.22 51.0729 148.641 50.5608 149.896 49.6258C151.15 48.6908 152.118 47.3211 152.8 45.5107C153.482 43.7003 153.745 41.473 153.602 38.8288C153.465 36.3455 152.955 34.2373 152.078 32.4924C151.202 30.7535 150.073 29.4493 148.698 28.5798C147.317 27.7163 145.839 27.3292 144.264 27.4245C142.62 27.5257 141.182 28.0974 139.938 29.1396C138.701 30.1877 137.773 31.6349 137.16 33.4869C136.547 35.345 136.306 37.471 136.438 39.8591Z" fill="#FEC213"/>
</svg>
